<svg width="168" height="30" viewBox="0 0 168 30" fill="none" xmlns="http://www.w3.org/2000/svg">
<path fill-rule="evenodd" clip-rule="evenodd" d="M61.6062 19.126C64.9542 19.126 66.6282 17.884 66.6282 15.4C66.6282 14.776 66.4422 14.224 66.0702 13.744C65.6982 13.264 65.0502 12.76 64.1262 12.232C63.8382 12.064 63.4842 11.869 63.0642 11.647C62.6442 11.425 62.3142 11.248 62.0742 11.116C61.8342 10.984 61.5882 10.831 61.3362 10.657C61.0842 10.483 60.9012 10.315 60.7872 10.153C60.6732 9.99101 60.6162 9.82001 60.6162 9.64001C60.6162 9.06401 60.9702 8.77601 61.6782 8.77601C62.1222 8.77601 62.6082 8.88701 63.1362 9.10901C63.6642 9.33101 64.1442 9.55301 64.5762 9.77501C65.0082 9.99701 65.3322 10.108 65.5482 10.108C65.6802 10.108 65.8032 10.081 65.9172 10.027C66.0312 9.97301 66.1272 9.88301 66.2052 9.75701C66.2832 9.63101 66.3222 9.47801 66.3222 9.29801C66.3222 8.63801 65.8182 8.01401 64.8102 7.42601C63.8022 6.83801 62.5842 6.54401 61.1562 6.54401C59.5002 6.54401 58.2222 6.86201 57.3222 7.49801C56.4222 8.13401 55.9722 8.95601 55.9722 9.96401C55.9722 10.276 56.0442 10.615 56.1882 10.981C56.3322 11.347 56.5632 11.716 56.8812 12.088C57.1992 12.46 57.5802 12.772 58.0242 13.024C58.3602 13.216 58.7082 13.408 59.0682 13.6C59.4282 13.792 59.7192 13.948 59.9412 14.068L60.6072 14.428C60.8292 14.548 61.0032 14.647 61.1292 14.725C61.2552 14.803 61.3692 14.887 61.4712 14.977C61.5732 15.067 61.6452 15.157 61.6872 15.247C61.7292 15.337 61.7502 15.436 61.7502 15.544C61.7502 15.916 61.4802 16.102 60.9402 16.102C60.3522 16.102 59.5782 15.943 58.6182 15.625C57.6582 15.307 57.0522 15.148 56.8002 15.148C56.4642 15.148 56.2092 15.241 56.0352 15.427C55.8612 15.613 55.7742 15.838 55.7742 16.102C55.7742 16.342 55.8642 16.6 56.0442 16.876C56.2242 17.152 56.4912 17.422 56.8452 17.686C57.1992 17.95 57.6072 18.19 58.0692 18.406C58.5312 18.622 59.0712 18.796 59.6892 18.928C60.3072 19.06 60.9462 19.126 61.6062 19.126ZM80.8842 19C81.1842 19 81.4332 18.979 81.6312 18.937C81.8292 18.895 82.0092 18.811 82.1712 18.685C82.3332 18.559 82.4592 18.4 82.5492 18.208C82.6392 18.016 82.7142 17.752 82.7742 17.416C82.8342 17.08 82.8732 16.702 82.8912 16.282C82.9092 15.862 82.9182 15.334 82.9182 14.698C82.9182 13.174 82.7322 12.088 82.3602 11.44C81.9882 10.792 81.3762 10.468 80.5242 10.468C79.1802 10.468 78.0462 10.804 77.1222 11.476L76.9422 11.62C76.5462 10.852 75.9042 10.468 75.0162 10.468C74.4282 10.468 73.9152 10.534 73.4772 10.666C73.0392 10.798 72.5922 11.032 72.1362 11.368C71.8722 10.732 71.2482 10.414 70.2642 10.414C69.7122 10.414 69.2712 10.6 68.9412 10.972C68.6112 11.344 68.4462 11.836 68.4462 12.448V16.876C68.4462 17.632 68.5752 18.175 68.8332 18.505C69.0912 18.835 69.5742 19 70.2822 19C71.0382 19 71.5662 18.859 71.8662 18.577C72.1662 18.295 72.3162 17.794 72.3162 17.074V14.572C72.3162 14.176 72.3852 13.855 72.5232 13.609C72.6612 13.363 72.8382 13.24 73.0542 13.24C73.5942 13.24 73.8642 13.576 73.8642 14.248V17.506C73.8642 17.83 73.9182 18.1 74.0262 18.316C74.1342 18.532 74.3172 18.7 74.5752 18.82C74.8332 18.94 75.1722 19 75.5922 19C75.8682 19 76.0962 18.979 76.2762 18.937C76.4562 18.895 76.6182 18.811 76.7622 18.685C76.9062 18.559 77.0202 18.4 77.1042 18.208C77.1882 18.016 77.2602 17.752 77.3202 17.416C77.3802 17.08 77.4192 16.702 77.4372 16.282C77.4552 15.862 77.4642 15.334 77.4642 14.698C77.4642 14.278 77.5242 13.93 77.6442 13.654C77.7642 13.378 77.9442 13.24 78.1842 13.24C78.7242 13.24 78.9942 13.576 78.9942 14.248V17.506C78.9942 17.83 79.0542 18.1 79.1742 18.316C79.2942 18.532 79.4952 18.7 79.7772 18.82C80.0592 18.94 80.4282 19 80.8842 19ZM87.9852 8.97401C87.6552 9.17801 87.1662 9.28001 86.5182 9.28001C85.9542 9.28001 85.4862 9.17201 85.1142 8.95601C84.7422 8.74001 84.5562 8.39201 84.5562 7.91201C84.5562 7.51601 84.7272 7.18901 85.0692 6.93101C85.4112 6.67301 85.8942 6.54401 86.5182 6.54401C87.8262 6.54401 88.4802 7.00001 88.4802 7.91201C88.4802 8.41601 88.3152 8.77001 87.9852 8.97401ZM86.4282 19C87.1842 19 87.7122 18.859 88.0122 18.577C88.3122 18.295 88.4622 17.794 88.4622 17.074V12.394C88.4622 11.638 88.2822 11.119 87.9222 10.837C87.5622 10.555 87.0582 10.414 86.4102 10.414C85.8582 10.414 85.4172 10.6 85.0872 10.972C84.7572 11.344 84.5922 11.836 84.5922 12.448V16.876C84.5922 17.632 84.7212 18.175 84.9792 18.505C85.2372 18.835 85.7202 19 86.4282 19ZM93.5742 18.37C93.2502 18.79 92.7522 19 92.0802 19C91.4082 19 90.9162 18.811 90.6042 18.433C90.2922 18.055 90.1362 17.386 90.1362 16.426L90.1002 8.83001C90.1002 8.51801 90.1332 8.24201 90.1992 8.00201C90.2652 7.76201 90.3552 7.55801 90.4692 7.39001C90.5832 7.22201 90.7242 7.08401 90.8922 6.97601C91.0602 6.86801 91.2432 6.79001 91.4412 6.74201C91.6392 6.69401 91.8522 6.67001 92.0802 6.67001C92.7402 6.67001 93.2352 6.80201 93.5652 7.06601C93.8952 7.33001 94.0602 7.86401 94.0602 8.66801V16.282C94.0602 17.254 93.8982 17.95 93.5742 18.37ZM100.666 19.108C101.314 19.108 101.92 19 102.484 18.784C103.048 18.568 103.501 18.307 103.843 18.001C104.185 17.695 104.452 17.389 104.644 17.083C104.836 16.777 104.932 16.516 104.932 16.3C104.932 16.12 104.875 15.97 104.761 15.85C104.647 15.73 104.488 15.67 104.284 15.67C104.164 15.67 103.969 15.736 103.699 15.868C103.429 16 103.18 16.096 102.952 16.156C102.412 16.288 101.884 16.354 101.368 16.354C100.888 16.354 100.492 16.243 100.18 16.021C99.8682 15.799 99.6522 15.496 99.5322 15.112L102.07 15.094C102.37 15.094 102.652 15.067 102.916 15.013C103.18 14.959 103.408 14.881 103.6 14.779C103.792 14.677 103.963 14.563 104.113 14.437C104.263 14.311 104.383 14.173 104.473 14.023C104.563 13.873 104.629 13.72 104.671 13.564C104.713 13.408 104.734 13.246 104.734 13.078C104.734 12.214 104.407 11.533 103.753 11.035C103.099 10.537 102.07 10.288 100.666 10.288C99.1782 10.288 97.9632 10.699 97.0212 11.521C96.0792 12.343 95.6082 13.462 95.6082 14.878C95.6082 16.186 96.0852 17.218 97.0392 17.974C97.9932 18.73 99.2022 19.108 100.666 19.108ZM99.6762 12.871C99.5562 13.201 99.4782 13.564 99.4422 13.96C100.27 13.948 100.72 13.942 100.792 13.942C100.972 13.942 101.104 13.834 101.188 13.618C101.248 13.462 101.278 13.246 101.278 12.97C101.278 12.214 101.05 11.836 100.594 11.836C100.426 11.836 100.261 11.926 100.099 12.106C99.9372 12.286 99.7962 12.541 99.6762 12.871ZM112.204 19.126C115.552 19.126 117.226 17.884 117.226 15.4C117.226 14.776 117.04 14.224 116.668 13.744C116.296 13.264 115.648 12.76 114.724 12.232C114.436 12.064 114.082 11.869 113.662 11.647C113.242 11.425 112.912 11.248 112.672 11.116C112.432 10.984 112.186 10.831 111.934 10.657C111.682 10.483 111.499 10.315 111.385 10.153C111.271 9.99101 111.214 9.82001 111.214 9.64001C111.214 9.06401 111.568 8.77601 112.276 8.77601C112.72 8.77601 113.206 8.88701 113.734 9.10901C114.262 9.33101 114.742 9.55301 115.174 9.77501C115.606 9.99701 115.93 10.108 116.146 10.108C116.278 10.108 116.401 10.081 116.515 10.027C116.629 9.97301 116.725 9.88301 116.803 9.75701C116.881 9.63101 116.92 9.47801 116.92 9.29801C116.92 8.63801 116.416 8.01401 115.408 7.42601C114.4 6.83801 113.182 6.54401 111.754 6.54401C110.098 6.54401 108.82 6.86201 107.92 7.49801C107.02 8.13401 106.57 8.95601 106.57 9.96401C106.57 10.276 106.642 10.615 106.786 10.981C106.93 11.347 107.161 11.716 107.479 12.088C107.797 12.46 108.178 12.772 108.622 13.024C108.958 13.216 109.306 13.408 109.666 13.6C110.026 13.792 110.317 13.948 110.539 14.068L111.205 14.428C111.427 14.548 111.601 14.647 111.727 14.725C111.853 14.803 111.967 14.887 112.069 14.977C112.171 15.067 112.243 15.157 112.285 15.247C112.327 15.337 112.348 15.436 112.348 15.544C112.348 15.916 112.078 16.102 111.538 16.102C110.95 16.102 110.176 15.943 109.216 15.625C108.256 15.307 107.65 15.148 107.398 15.148C107.062 15.148 106.807 15.241 106.633 15.427C106.459 15.613 106.372 15.838 106.372 16.102C106.372 16.342 106.462 16.6 106.642 16.876C106.822 17.152 107.089 17.422 107.443 17.686C107.797 17.95 108.205 18.19 108.667 18.406C109.129 18.622 109.669 18.796 110.287 18.928C110.905 19.06 111.544 19.126 112.204 19.126ZM125.416 18.91C124.948 19.054 124.456 19.126 123.94 19.126C122.452 19.126 121.228 18.727 120.268 17.929C119.308 17.131 118.828 16.036 118.828 14.644C118.828 13.756 119.047 12.979 119.485 12.313C119.923 11.647 120.526 11.143 121.294 10.801C122.062 10.459 122.944 10.288 123.94 10.288C124.888 10.288 125.671 10.399 126.289 10.621C126.907 10.843 127.348 11.14 127.612 11.512C127.876 11.884 128.008 12.328 128.008 12.844C128.008 13.072 127.963 13.306 127.873 13.546C127.783 13.786 127.645 14.026 127.459 14.266C127.273 14.506 127 14.701 126.64 14.851C126.28 15.001 125.86 15.076 125.38 15.076C125.164 15.076 124.987 15.064 124.849 15.04C124.711 15.016 124.567 14.965 124.417 14.887C124.267 14.809 124.156 14.68 124.084 14.5C124.012 14.32 123.976 14.092 123.976 13.816C123.976 13.576 124.021 13.285 124.111 12.943C124.201 12.601 124.246 12.376 124.246 12.268C124.246 11.992 124.09 11.854 123.778 11.854C123.55 11.854 123.346 11.98 123.166 12.232C122.986 12.484 122.848 12.799 122.752 13.177C122.656 13.555 122.608 13.948 122.608 14.356C122.608 14.956 122.791 15.442 123.157 15.814C123.523 16.186 124.018 16.372 124.642 16.372C125.254 16.372 125.782 16.3 126.226 16.156C126.406 16.108 126.625 16.018 126.883 15.886C127.141 15.754 127.324 15.688 127.432 15.688C127.6 15.688 127.738 15.718 127.846 15.778C127.954 15.838 128.029 15.91 128.071 15.994C128.113 16.078 128.134 16.168 128.134 16.264C128.134 16.432 128.077 16.636 127.963 16.876C127.849 17.116 127.672 17.368 127.432 17.632C127.192 17.896 126.913 18.139 126.595 18.361C126.277 18.583 125.884 18.766 125.416 18.91ZM137.242 19C137.494 19 137.71 18.982 137.89 18.946C138.07 18.91 138.235 18.853 138.385 18.775C138.535 18.697 138.658 18.586 138.754 18.442C138.85 18.298 138.934 18.124 139.006 17.92C139.078 17.716 139.132 17.455 139.168 17.137C139.204 16.819 139.231 16.468 139.249 16.084C139.267 15.7 139.276 15.244 139.276 14.716C139.276 13.684 139.192 12.85 139.024 12.214C138.856 11.578 138.598 11.113 138.25 10.819C137.902 10.525 137.44 10.378 136.864 10.378C135.592 10.378 134.512 10.648 133.624 11.188V8.57801C133.624 7.77401 133.462 7.24001 133.138 6.97601C132.814 6.71201 132.334 6.58001 131.698 6.58001C131.098 6.58001 130.618 6.75401 130.258 7.10201C129.898 7.45001 129.718 7.99601 129.718 8.74001L129.754 16.408C129.754 17.368 129.91 18.037 130.222 18.415C130.534 18.793 131.026 18.982 131.698 18.982C132.346 18.982 132.829 18.775 133.147 18.361C133.465 17.947 133.624 17.248 133.624 16.264V14.284C133.624 14.152 133.633 14.032 133.651 13.924C133.669 13.816 133.699 13.723 133.741 13.645C133.783 13.567 133.831 13.495 133.885 13.429C133.939 13.363 133.999 13.312 134.065 13.276C134.131 13.24 134.203 13.21 134.281 13.186C134.359 13.162 134.446 13.15 134.542 13.15C135.07 13.15 135.334 13.492 135.334 14.176L135.352 17.506C135.352 18.01 135.499 18.385 135.793 18.631C136.087 18.877 136.57 19 137.242 19ZM149.365 17.956C148.423 18.736 147.238 19.126 145.81 19.126C144.874 19.126 144.031 18.958 143.281 18.622C142.531 18.286 141.931 17.782 141.481 17.11C141.031 16.438 140.806 15.652 140.806 14.752C140.806 13.384 141.274 12.298 142.21 11.494C143.146 10.69 144.346 10.288 145.81 10.288C147.274 10.288 148.468 10.69 149.392 11.494C150.316 12.298 150.778 13.384 150.778 14.752C150.778 16.108 150.307 17.176 149.365 17.956ZM145.81 17.038C145.498 17.038 145.258 16.807 145.09 16.345C144.922 15.883 144.838 15.346 144.838 14.734C144.838 14.338 144.874 13.966 144.946 13.618C145.018 13.27 145.132 12.976 145.288 12.736C145.444 12.496 145.624 12.376 145.828 12.376C146.128 12.376 146.356 12.613 146.512 13.087C146.668 13.561 146.746 14.11 146.746 14.734C146.746 15.358 146.668 15.898 146.512 16.354C146.356 16.81 146.122 17.038 145.81 17.038ZM160.723 17.956C159.781 18.736 158.596 19.126 157.168 19.126C156.232 19.126 155.389 18.958 154.639 18.622C153.889 18.286 153.289 17.782 152.839 17.11C152.389 16.438 152.164 15.652 152.164 14.752C152.164 13.384 152.632 12.298 153.568 11.494C154.504 10.69 155.704 10.288 157.168 10.288C158.632 10.288 159.826 10.69 160.75 11.494C161.674 12.298 162.136 13.384 162.136 14.752C162.136 16.108 161.665 17.176 160.723 17.956ZM157.168 17.038C156.856 17.038 156.616 16.807 156.448 16.345C156.28 15.883 156.196 15.346 156.196 14.734C156.196 14.338 156.232 13.966 156.304 13.618C156.376 13.27 156.49 12.976 156.646 12.736C156.802 12.496 156.982 12.376 157.186 12.376C157.486 12.376 157.714 12.613 157.87 13.087C158.026 13.561 158.104 14.11 158.104 14.734C158.104 15.358 158.026 15.898 157.87 16.354C157.714 16.81 157.48 17.038 157.168 17.038ZM167.122 18.37C166.798 18.79 166.3 19 165.628 19C164.956 19 164.464 18.811 164.152 18.433C163.84 18.055 163.684 17.386 163.684 16.426L163.648 8.83001C163.648 8.51801 163.681 8.24201 163.747 8.00201C163.813 7.76201 163.903 7.55801 164.017 7.39001C164.131 7.22201 164.272 7.08401 164.44 6.97601C164.608 6.86801 164.791 6.79001 164.989 6.74201C165.187 6.69401 165.4 6.67001 165.628 6.67001C166.288 6.67001 166.783 6.80201 167.113 7.06601C167.443 7.33001 167.608 7.86401 167.608 8.66801V16.282C167.608 17.254 167.446 17.95 167.122 18.37Z" fill="white"/>
<path d="M8.92807 11.8712C11.0969 11.8712 12.8609 9.21359 12.8609 5.94679C12.8609 2.68079 11.0969 0.0231934 8.92807 0.0231934C6.75927 0.0231934 4.99487 2.68079 4.99487 5.94679C4.99487 9.21359 6.75967 11.8712 8.92807 11.8712Z" fill="white"/>
<path d="M27.6424 11.8712C29.8112 11.8712 31.5756 9.21359 31.5756 5.94679C31.5756 2.68079 29.8112 0.0231934 27.6424 0.0231934C25.474 0.0231934 23.71 2.68079 23.71 5.94679C23.71 9.21359 25.4744 11.8712 27.6424 11.8712Z" fill="white"/>
<path d="M35.7179 16.612C35.4687 16.3987 35.1253 16.3744 34.8617 16.5559C30.6311 19.4466 24.8916 21.4571 18.6998 22.2173C12.5095 22.9774 6.45377 22.4152 1.64918 20.6343C1.34936 20.5232 1.02114 20.6288 0.832415 20.8958C0.642638 21.1633 0.633297 21.5352 0.808942 21.8215C3.41486 26.076 11.0299 28.3352 19.3263 27.3166C27.626 26.2975 34.4686 22.2619 35.9657 17.504C36.0661 17.1842 35.9663 16.8253 35.7179 16.612Z" fill="white"/>
</svg>
